<svg id="Capa_1" fill="white" enable-background="new 0 0 512 512" height="512" viewBox="0 0 512 512" width="512" xmlns="http://www.w3.org/2000/svg"><path d="m506.15 252.015c-3.61-1.781-7.836-1.368-11.024 1.075l-20.642 15.771c-11.592 8.861-27.785 8.863-39.379 0l-3.522-2.693 5.779-10.007c12.309 2.478 25.114-3.072 31.561-14.239 6.526-11.303 4.733-25.156-3.453-34.448l4.984-8.634c3.56-6.165 4.506-13.349 2.663-20.228-1.842-6.879-6.252-12.628-12.418-16.189l-14.619-8.439c-12.725-7.348-29.062-2.974-36.427 9.757l-10.188 17.66s-33.819-2.324-34.602-2.322c-10.957.035-21.361 5.569-27.517 14.642-.44.648-.858 1.314-1.253 1.997l-31.835 55.144c-3.556.269-7.051 1.537-10.026 3.809l-18.546 14.187c-.831.635-1.689 1.224-2.568 1.771l-12.127-68.793 8.871 2.388c3.151.849 6.443.419 9.271-1.21 2.827-1.628 4.852-4.26 5.699-7.411l5.82-21.625c.848-3.15.418-6.443-1.209-9.27-1.629-2.828-4.261-4.852-7.411-5.7l-43.736-11.773c-3.994-1.078-8.115 1.292-9.191 5.293-1.077 4 1.293 8.115 5.293 9.191l41.047 11.049-4.373 16.247-112.355-30.243c-4.775-1.287-9.837-.393-13.888 2.449l-95.235 66.846-9.665-13.771 104.827-73.58c2.045-1.435 4.6-1.888 7.019-1.237l48.825 13.143c3.995 1.077 8.115-1.292 9.191-5.293 1.076-4-1.293-8.115-5.293-9.191l-48.824-13.143c-6.718-1.808-13.84-.554-19.536 3.445l-25.11 17.625-4.263-24.165c-.513-2.901-2.125-5.429-4.539-7.117s-5.341-2.334-8.237-1.822l-28.716 5.061c-2.895.513-5.421 2.12-7.111 4.525-1.698 2.417-2.351 5.35-1.837 8.252l8.421 47.751-35.714 25.07c-2.671 1.874-4.453 4.677-5.016 7.892-.563 3.214.16 6.455 2.034 9.124l12.866 18.331c1.875 2.67 4.677 4.451 7.891 5.014.712.125 1.425.187 2.133.187 2.489 0 4.913-.761 6.991-2.22l7.52-5.278 6.398 36.274c-10.579 4.468-23.049 3.025-32.345-4.082l-20.623-15.765c-3.196-2.449-7.424-2.862-11.032-1.081s-5.849 5.388-5.849 9.413v130.278c0 4.142 3.357 7.5 7.5 7.5h497c4.143 0 7.5-3.358 7.5-7.5v-130.278c0-4.025-2.241-7.633-5.85-9.414zm-413.465-123.591 4.791 27.156-19.176 13.46-6.513-36.932zm363.249 105.999c-4.04 6.999-13.024 9.407-20.023 5.366-3.391-1.958-5.816-5.119-6.83-8.901-1.013-3.782-.493-7.732 1.465-11.123 4.051-7.015 13.003-9.417 20.022-5.365 6.999 4.041 9.407 13.024 5.366 20.023zm-45.817-41.468 12.524-21.711c3.224-5.568 10.373-7.485 15.938-4.27l14.619 8.439c2.696 1.557 4.624 4.071 5.43 7.08.807 3.009.393 6.15-1.164 8.846l-4.47 7.744c-13.096-4.592-28.152.555-35.44 13.181-3.961 6.861-5.014 14.853-2.963 22.505 1.562 5.831 4.787 10.929 9.269 14.78l-4.292 7.432-3.024-2.312c-6.744-5.153-16.164-5.153-22.91.002l-18.548 14.187c-3.673 2.806-7.809 4.717-12.113 5.746zm-61.034 10.267c3.472-6.007 10.168-9.586 17.097-9.101l24.941 1.736-25.201 43.646-28.337-16.361zm-19 32.911 28.336 16.36-12.468 21.593c-3.632-1.099-7.115-2.825-10.255-5.224l-17-13.005zm-176.638-62.632c.401-.281.903-.369 1.373-.243l90.184 24.275 24.048 136.417c-10.626 4.665-23.235 3.372-32.749-3.903l-18.552-14.185c-1.117-.854-2.313-1.553-3.552-2.124l-8.371-47.473c-3.333-18.879-21.41-31.538-40.29-28.211-18.878 3.333-31.534 21.405-28.212 40.289l10.054 56.998c-3.711-1.096-7.27-2.843-10.473-5.292l-18.553-14.185c-6.744-5.156-16.164-5.157-22.91 0l-2.46 1.881-15.978-90.588zm45.478 139.99c-1.432.607-2.806 1.396-4.082 2.372l-18.554 14.186c-4.078 3.118-8.73 5.116-13.546 6.04l-10.644-60.349c-1.89-10.74 5.31-21.019 16.043-22.914 10.747-1.895 21.019 5.309 22.915 16.045zm-183.923-42.953 13.396 10.239c12.665 9.684 29.363 12.177 44.104 7.188l7.063 40.041-2.672 2.043c-11.594 8.866-27.788 8.866-39.382 0l-22.509-17.21zm482 42.301-22.517 17.214c-6.876 5.256-15.394 7.522-23.98 6.379-4.089-.541-7.877 2.339-8.424 6.445s2.339 7.877 6.445 8.424c12.555 1.673 25.012-1.643 35.069-9.332l13.407-10.249v52.488h-482v-52.486l13.396 10.243c16.957 12.966 40.646 12.967 57.604 0l18.553-14.186c1.379-1.056 3.309-1.055 4.688 0l18.553 14.185c16.915 12.932 40.631 12.979 57.604 0l18.554-14.186c1.38-1.054 3.306-1.056 4.688 0l18.551 14.185c16.455 12.581 38.674 12.524 54.288 2.317 3.019-1.924 3.678-2.625 21.868-16.502 1.381-1.054 3.308-1.056 4.688 0l18.554 14.187c16.959 12.967 40.646 12.964 57.604 0l18.554-14.186c1.378-1.055 3.307-1.056 4.687 0l7.032 5.376c3.293 2.516 7.998 1.888 10.514-1.403s1.888-7.998-1.402-10.513l-7.033-5.377c-6.744-5.155-16.164-5.155-22.908.001l-18.554 14.186c-11.594 8.866-27.788 8.865-39.382 0l-18.554-14.187c-6.745-5.158-16.167-5.155-22.91 0l-11.581 8.855-6.797-38.559c3.155-1.453 6.147-3.25 8.94-5.384l18.547-14.188c1.381-1.054 3.311-1.057 4.689-.002l18.554 14.193c16.849 12.872 40.565 13.02 57.609-.003l18.548-14.188c1.383-1.055 3.312-1.055 4.69-.001l18.561 14.19c16.956 12.963 40.643 12.963 57.599.001l13.404-10.241z"/></svg>